<svg width="26" height="24" viewBox="0 0 26 24" fill="none" xmlns="http://www.w3.org/2000/svg">
<path fill-rule="evenodd" clip-rule="evenodd" d="M25.6111 12.0001C25.6111 12.4182 25.445 12.8191 25.1494 13.1148C24.8537 13.4104 24.4527 13.5765 24.0346 13.5765H5.76965L12.539 20.3427C12.6856 20.4893 12.8019 20.6633 12.8812 20.8548C12.9605 21.0463 13.0013 21.2516 13.0013 21.4589C13.0013 21.6662 12.9605 21.8714 12.8812 22.0629C12.8019 22.2544 12.6856 22.4284 12.539 22.575C12.3924 22.7216 12.2184 22.8379 12.0269 22.9172C11.8354 22.9965 11.6302 23.0373 11.4229 23.0373C11.2156 23.0373 11.0103 22.9965 10.8188 22.9172C10.6273 22.8379 10.4533 22.7216 10.3067 22.575L0.847913 13.1162C0.701102 12.9698 0.584623 12.7958 0.505148 12.6043C0.425674 12.4127 0.384766 12.2074 0.384766 12.0001C0.384766 11.7927 0.425674 11.5874 0.505148 11.3958C0.584623 11.2043 0.701102 11.0304 0.847913 10.8839L10.3067 1.42509C10.6028 1.12907 11.0042 0.962769 11.4229 0.962769C11.8415 0.962769 12.243 1.12907 12.539 1.42509C12.835 1.72111 13.0013 2.1226 13.0013 2.54123C13.0013 2.95987 12.835 3.36135 12.539 3.65737L5.76965 10.4236H24.0346C24.4527 10.4236 24.8537 10.5897 25.1494 10.8853C25.445 11.181 25.6111 11.5819 25.6111 12.0001Z" fill="black" fill-opacity="0.3"/>
</svg>
