<svg width="24" height="24" viewBox="0 0 24 24" fill="none" xmlns="http://www.w3.org/2000/svg">
<path d="M11.9997 0.333008C15.1695 0.333008 15.565 0.344674 16.8087 0.403008C18.0512 0.461341 18.897 0.656175 19.6413 0.945508C20.4113 1.24184 21.06 1.64317 21.7087 2.29067C22.3019 2.87389 22.761 3.57936 23.0538 4.35801C23.342 5.10117 23.538 5.94817 23.5963 7.19067C23.6512 8.43434 23.6663 8.82984 23.6663 11.9997C23.6663 15.1695 23.6547 15.565 23.5963 16.8087C23.538 18.0512 23.342 18.897 23.0538 19.6413C22.7618 20.4204 22.3027 21.1261 21.7087 21.7087C21.1253 22.3017 20.4199 22.7607 19.6413 23.0538C18.8982 23.342 18.0512 23.538 16.8087 23.5963C15.565 23.6512 15.1695 23.6663 11.9997 23.6663C8.82984 23.6663 8.43434 23.6547 7.19067 23.5963C5.94817 23.538 5.10234 23.342 4.35801 23.0538C3.57906 22.7616 2.87346 22.3024 2.29067 21.7087C1.69732 21.1256 1.23826 20.4201 0.945508 19.6413C0.656175 18.8982 0.461341 18.0512 0.403008 16.8087C0.348174 15.565 0.333008 15.1695 0.333008 11.9997C0.333008 8.82984 0.344674 8.43434 0.403008 7.19067C0.461341 5.94701 0.656175 5.10234 0.945508 4.35801C1.23745 3.57888 1.69661 2.87322 2.29067 2.29067C2.87362 1.69711 3.57917 1.23803 4.35801 0.945508C5.10234 0.656175 5.94701 0.461341 7.19067 0.403008C8.43434 0.348174 8.82984 0.333008 11.9997 0.333008ZM11.9997 6.16634C10.4526 6.16634 8.96885 6.78092 7.87489 7.87489C6.78092 8.96885 6.16634 10.4526 6.16634 11.9997C6.16634 13.5468 6.78092 15.0305 7.87489 16.1245C8.96885 17.2184 10.4526 17.833 11.9997 17.833C13.5468 17.833 15.0305 17.2184 16.1245 16.1245C17.2184 15.0305 17.833 13.5468 17.833 11.9997C17.833 10.4526 17.2184 8.96885 16.1245 7.87489C15.0305 6.78092 13.5468 6.16634 11.9997 6.16634ZM19.583 5.87467C19.583 5.4879 19.4294 5.11697 19.1559 4.84348C18.8824 4.56999 18.5114 4.41634 18.1247 4.41634C17.7379 4.41634 17.367 4.56999 17.0935 4.84348C16.82 5.11697 16.6663 5.4879 16.6663 5.87467C16.6663 6.26145 16.82 6.63238 17.0935 6.90587C17.367 7.17936 17.7379 7.33301 18.1247 7.33301C18.5114 7.33301 18.8824 7.17936 19.1559 6.90587C19.4294 6.63238 19.583 6.26145 19.583 5.87467ZM11.9997 8.49967C12.9279 8.49967 13.8182 8.86842 14.4745 9.5248C15.1309 10.1812 15.4997 11.0714 15.4997 11.9997C15.4997 12.9279 15.1309 13.8182 14.4745 14.4745C13.8182 15.1309 12.9279 15.4997 11.9997 15.4997C11.0714 15.4997 10.1812 15.1309 9.5248 14.4745C8.86842 13.8182 8.49967 12.9279 8.49967 11.9997C8.49967 11.0714 8.86842 10.1812 9.5248 9.5248C10.1812 8.86842 11.0714 8.49967 11.9997 8.49967Z" fill="#3461FF"/>
</svg>
