<svg width="24" height="24" viewBox="0 0 24 24" fill="none" xmlns="http://www.w3.org/2000/svg">
<g clip-path="url(#clip0_14_228)">
<path d="M17.7188 9.28125C17.5156 9.09375 17.2734 9 16.9922 9C16.7266 9 16.4922 9.09375 16.2891 9.28125L12 13.5938L7.71094 9.28125C7.50781 9.09375 7.26562 9 6.98438 9C6.71875 9 6.48438 9.09375 6.28125 9.28125C6.09375 9.48438 6 9.72656 6 10.0078C6 10.2734 6.09375 10.5078 6.28125 10.7109L11.2969 15.7031C11.3906 15.7969 11.5 15.875 11.625 15.9375C11.75 15.9844 11.875 16.0078 12 16.0078C12.125 16.0078 12.25 15.9844 12.375 15.9375C12.5 15.875 12.6094 15.7969 12.7031 15.7031L17.7188 10.7109C17.9062 10.5078 18 10.2734 18 10.0078C18 9.72656 17.9062 9.48438 17.7188 9.28125Z" fill="#863BFF"/>
</g>
<defs>
<clipPath id="clip0_14_228">
<rect width="24" height="24" fill="white"/>
</clipPath>
</defs>
</svg>
