<svg width="24" height="20" viewBox="0 0 24 20" fill="none" xmlns="http://www.w3.org/2000/svg">
<path d="M7.539 19.501C16.596 19.501 21.5505 11.9965 21.5505 5.49998C21.5505 5.28998 21.5505 5.07698 21.5415 4.86698C22.5061 4.16871 23.3386 3.30421 24 2.31398C23.099 2.71125 22.1441 2.97309 21.1665 3.09098C22.1963 2.47544 22.9676 1.50693 23.337 0.365479C22.3695 0.938665 21.3105 1.34104 20.2065 1.55498C19.4643 0.764514 18.4821 0.240855 17.4121 0.0651149C16.3421 -0.110625 15.2441 0.0713609 14.288 0.582885C13.3319 1.09441 12.5712 1.90692 12.1237 2.89457C11.6761 3.88222 11.5668 4.98988 11.8125 6.04598C9.85461 5.94781 7.93922 5.43918 6.19056 4.55309C4.4419 3.66701 2.89903 2.42324 1.662 0.902479C1.03401 1.9871 0.842361 3.27008 1.12597 4.49088C1.40958 5.71168 2.14718 6.77877 3.189 7.47548C2.40831 7.44895 1.64478 7.23932 0.96 6.86348V6.93098C0.961346 8.0672 1.35496 9.16811 2.07431 10.0476C2.79366 10.9271 3.79462 11.5313 4.908 11.758C4.48539 11.8744 4.04884 11.9324 3.6105 11.9305C3.30148 11.9314 2.99307 11.9028 2.6895 11.845C3.00418 12.8231 3.61691 13.6782 4.44187 14.2907C5.26683 14.9032 6.2627 15.2423 7.29 15.2605C5.54483 16.6312 3.3891 17.3746 1.17 17.371C0.778981 17.3726 0.388235 17.3501 0 17.3035C2.25227 18.7394 4.86795 19.5018 7.539 19.501Z" fill="#3461FF"/>
</svg>
