<svg width="26" height="24" viewBox="0 0 26 24" fill="none" xmlns="http://www.w3.org/2000/svg">
<path fill-rule="evenodd" clip-rule="evenodd" d="M0.388887 12.0001C0.388887 12.4182 0.554977 12.8191 0.850624 13.1148C1.14627 13.4104 1.54725 13.5765 1.96536 13.5765H20.2303L13.461 20.3427C13.3144 20.4893 13.1981 20.6633 13.1188 20.8548C13.0395 21.0463 12.9987 21.2516 12.9987 21.4589C12.9987 21.6662 13.0395 21.8714 13.1188 22.0629C13.1981 22.2544 13.3144 22.4284 13.461 22.575C13.6076 22.7216 13.7816 22.8379 13.9731 22.9172C14.1646 22.9965 14.3698 23.0373 14.5771 23.0373C14.7844 23.0373 14.9897 22.9965 15.1812 22.9172C15.3727 22.8379 15.5467 22.7216 15.6933 22.575L25.1521 13.1162C25.2989 12.9698 25.4154 12.7958 25.4949 12.6043C25.5743 12.4127 25.6152 12.2074 25.6152 12.0001C25.6152 11.7927 25.5743 11.5874 25.4949 11.3958C25.4154 11.2043 25.2989 11.0304 25.1521 10.8839L15.6933 1.42509C15.3972 1.12907 14.9958 0.962769 14.5771 0.962769C14.1585 0.962769 13.757 1.12907 13.461 1.42509C13.165 1.72111 12.9987 2.1226 12.9987 2.54123C12.9987 2.95987 13.165 3.36135 13.461 3.65737L20.2303 10.4236H1.96536C1.54725 10.4236 1.14627 10.5897 0.850624 10.8853C0.554977 11.181 0.388887 11.5819 0.388887 12.0001Z" fill="white"/>
</svg>
