<svg width="102" height="102" viewBox="0 0 102 102" fill="none" xmlns="http://www.w3.org/2000/svg">
<rect width="102" height="102" rx="24" fill="#3461FF"/>
<g clip-path="url(#clip0_6_2446)">
<path d="M73.8158 38.6252C73.5824 38.0632 73.1358 37.6166 72.5738 37.3832C72.2973 37.2654 72.0004 37.2029 71.6999 37.1992H60.2003C59.5904 37.1992 59.0054 37.4415 58.5741 37.8728C58.1427 38.3042 57.9004 38.8892 57.9004 39.4991C57.9004 40.1091 58.1427 40.6941 58.5741 41.1254C59.0054 41.5567 59.5904 41.799 60.2003 41.799H66.1571L53.3006 54.6555L45.7339 47.0658C45.5201 46.8503 45.2657 46.6792 44.9855 46.5624C44.7052 46.4456 44.4046 46.3855 44.101 46.3855C43.7974 46.3855 43.4968 46.4456 43.2165 46.5624C42.9362 46.6792 42.6818 46.8503 42.468 47.0658L28.6686 60.8653C28.453 61.0791 28.2819 61.3335 28.1652 61.6137C28.0484 61.894 27.9883 62.1946 27.9883 62.4982C27.9883 62.8018 28.0484 63.1024 28.1652 63.3827C28.2819 63.663 28.453 63.9173 28.6686 64.1311C28.8824 64.3467 29.1368 64.5178 29.417 64.6346C29.6973 64.7513 29.9979 64.8115 30.3015 64.8115C30.6051 64.8115 30.9058 64.7513 31.186 64.6346C31.4663 64.5178 31.7207 64.3467 31.9345 64.1311L44.101 51.9416L51.6677 59.5313C51.8815 59.7469 52.1359 59.918 52.4161 60.0348C52.6964 60.1515 52.997 60.2116 53.3006 60.2116C53.6042 60.2116 53.9048 60.1515 54.1851 60.0348C54.4654 59.918 54.7197 59.7469 54.9335 59.5313L69.4 45.0419V50.9987C69.4 51.6086 69.6423 52.1936 70.0736 52.625C70.5049 53.0563 71.0899 53.2986 71.6999 53.2986C72.3099 53.2986 72.8948 53.0563 73.3262 52.625C73.7575 52.1936 73.9998 51.6086 73.9998 50.9987V39.4991C73.9962 39.1986 73.9336 38.9017 73.8158 38.6252Z" fill="white"/>
</g>
<defs>
<clipPath id="clip0_6_2446">
<rect width="46" height="46" fill="white" transform="translate(28 28)"/>
</clipPath>
</defs>
</svg>
