<svg width="102" height="102" viewBox="0 0 102 102" fill="none" xmlns="http://www.w3.org/2000/svg">
<rect width="102" height="102" rx="24" fill="#3461FF"/>
<g clip-path="url(#clip0_6_2432)">
<path fill-rule="evenodd" clip-rule="evenodd" d="M34.9 71.6003H67.1001C69.6899 71.6003 71.5299 70.471 72.6477 68.9185C73.6781 67.4856 74.0001 65.8365 74.0001 64.7003V50.9002C74.0001 50.2902 73.7578 49.7052 73.3265 49.2739C72.8951 48.8426 72.3101 48.6002 71.7001 48.6002H64.8001V37.1002C64.8001 35.2702 64.0731 33.5152 62.7791 32.2212C61.4851 30.9272 59.7301 30.2002 57.9001 30.2002H34.9C33.07 30.2002 31.315 30.9272 30.021 32.2212C28.727 33.5152 28 35.2702 28 37.1002V64.7003C28 65.8342 28.322 67.4856 29.3524 68.9185C30.4702 70.4733 32.3102 71.6003 34.9 71.6003ZM67.1001 53.2002C67.7101 53.2002 68.2951 53.4426 68.7264 53.8739C69.1578 54.3052 69.4001 54.8903 69.4001 55.5003V64.7003C69.4001 65.3103 69.1578 65.8953 68.7264 66.3266C68.2951 66.758 67.7101 67.0003 67.1001 67.0003C66.4901 67.0003 65.9051 66.758 65.4737 66.3266C65.0424 65.8953 64.8001 65.3103 64.8001 64.7003V55.5003C64.8001 54.8903 65.0424 54.3052 65.4737 53.8739C65.9051 53.4426 66.4901 53.2002 67.1001 53.2002ZM44.1 46.3002C44.1 45.6902 44.3424 45.1052 44.7737 44.6739C45.205 44.2425 45.79 44.0002 46.4 44.0002C47.01 44.0002 47.5951 44.2425 48.0264 44.6739C48.4577 45.1052 48.7 45.6902 48.7 46.3002C48.7 46.9102 48.4577 47.4952 48.0264 47.9266C47.5951 48.3579 47.01 48.6002 46.4 48.6002C45.79 48.6002 45.205 48.3579 44.7737 47.9266C44.3424 47.4952 44.1 46.9102 44.1 46.3002ZM46.4 39.4002C44.57 39.4002 42.815 40.1272 41.521 41.4212C40.227 42.7152 39.5 44.4702 39.5 46.3002C39.5 48.1302 40.227 49.8853 41.521 51.1793C42.815 52.4733 44.57 53.2002 46.4 53.2002C48.23 53.2002 49.9851 52.4733 51.2791 51.1793C52.5731 49.8853 53.3001 48.1302 53.3001 46.3002C53.3001 44.4702 52.5731 42.7152 51.2791 41.4212C49.9851 40.1272 48.23 39.4002 46.4 39.4002ZM39.5 57.8003C38.89 57.8003 38.305 58.0426 37.8737 58.4739C37.4423 58.9052 37.2 59.4903 37.2 60.1003C37.2 60.7103 37.4423 61.2953 37.8737 61.7266C38.305 62.1579 38.89 62.4003 39.5 62.4003H53.3001C53.9101 62.4003 54.4951 62.1579 54.9264 61.7266C55.3577 61.2953 55.6001 60.7103 55.6001 60.1003C55.6001 59.4903 55.3577 58.9052 54.9264 58.4739C54.4951 58.0426 53.9101 57.8003 53.3001 57.8003H39.5Z" fill="white"/>
</g>
<defs>
<clipPath id="clip0_6_2432">
<rect width="46" height="46" fill="white" transform="translate(28 28)"/>
</clipPath>
</defs>
</svg>
