<svg width="102" height="102" viewBox="0 0 102 102" fill="none" xmlns="http://www.w3.org/2000/svg">
<rect width="102" height="102" rx="24" fill="#3461FF"/>
<path fill-rule="evenodd" clip-rule="evenodd" d="M53.9895 30.4056C54.4564 30.5524 54.8643 30.8444 55.1538 31.239C55.4434 31.6336 55.5995 32.1103 55.5995 32.5998V44.0998H64.7995C65.2202 44.0996 65.6329 44.2148 65.9927 44.4329C66.3524 44.6509 66.6455 44.9635 66.84 45.3366C67.0345 45.7096 67.1229 46.1289 67.0957 46.5487C67.0684 46.9686 66.9265 47.3729 66.6855 47.7177L50.5855 70.7177C50.3053 71.1191 49.9043 71.4207 49.4408 71.5785C48.9774 71.7363 48.4757 71.7421 48.0088 71.5951C47.5418 71.4481 47.1339 71.1559 46.8445 70.761C46.5551 70.3662 46.3991 69.8893 46.3995 69.3998V57.8998H37.1995C36.7787 57.9 36.366 57.7847 36.0063 57.5667C35.6465 57.3486 35.3534 57.036 35.1589 56.663C34.9644 56.2899 34.876 55.8706 34.9033 55.4508C34.9305 55.031 35.0724 54.6267 35.3135 54.2819L51.4135 31.2819C51.6941 30.8812 52.0952 30.5804 52.5584 30.4232C53.0217 30.266 53.5229 30.2607 53.9895 30.4079V30.4056Z" fill="white"/>
</svg>
